<svg id="Composant_19_1" data-name="Composant 19 – 1" xmlns="http://www.w3.org/2000/svg" xmlns:xlink="http://www.w3.org/1999/xlink" width="129.735" height="40.056" viewBox="0 0 129.735 40.056">
  <defs>
    <clipPath id="clip-path">
      <rect id="Rectangle_1984" data-name="Rectangle 1984" width="129.735" height="40.056" fill="#fdfdfd"/>
    </clipPath>
  </defs>
  <g id="Groupe_2686" data-name="Groupe 2686" clip-path="url(#clip-path)">
    <path id="Tracé_7286" data-name="Tracé 7286" d="M137.8,44.015l-.031-.008c-2.28-.577-4.248-1.075-4.248-2.358,0-1.316,1.219-2.165,3.113-2.166h.119a8.157,8.157,0,0,1,5.284,1.944.89.89,0,0,0,1.256-.084l.028-.033,1.548-2.012a.9.9,0,0,0-.111-1.209,11.377,11.377,0,0,0-7.819-2.74c-4.668,0-8.056,2.755-8.056,6.55,0,4.771,4.3,5.837,7.758,6.693l.047.012c2.732.708,4.391,1.241,4.391,2.669,0,1.115-.986,2.417-3.776,2.417a8.512,8.512,0,0,1-5.932-2.392.888.888,0,0,0-.616-.247.9.9,0,0,0-.647.278.842.842,0,0,0-.075.091l-1.5,2.075a.887.887,0,0,0,.092,1.156l.357.353.009-.012a12,12,0,0,0,8.169,2.831h0c6.286,0,8.525-3.562,8.525-6.9,0-4.907-4.557-6.067-7.885-6.914" transform="translate(-89.883 -24.752)" fill="#fdfdfd"/>
    <path id="Tracé_7287" data-name="Tracé 7287" d="M208.841,36.382H195.423a.894.894,0,0,0-.891.892v20a.894.894,0,0,0,.889.9h0l13.418,0a.894.894,0,0,0,.892-.892v-2.32a.893.893,0,0,0-.893-.891l-9.767-.019.019-4.908h9.531a.894.894,0,0,0,.892-.892V45.927a.894.894,0,0,0-.892-.892l-9.549-.018.018-4.532h9.749a.893.893,0,0,0,.893-.892V37.274a.894.894,0,0,0-.893-.892" transform="translate(-136.212 -25.475)" fill="#fdfdfd"/>
    <path id="Tracé_7288" data-name="Tracé 7288" d="M391.665,36.392H376.241a.894.894,0,0,0-.891.892V39.6a.894.894,0,0,0,.892.892l5.441.019V57.285a.894.894,0,0,0,.892.892h0l2.758,0a.892.892,0,0,0,.891-.892l.02-16.788h5.422a.892.892,0,0,0,.891-.892V37.284a.894.894,0,0,0-.892-.892" transform="translate(-262.822 -25.482)" fill="#fdfdfd"/>
    <path id="Tracé_7289" data-name="Tracé 7289" d="M331.323,36.394H315.9a.893.893,0,0,0-.891.892V39.6a.894.894,0,0,0,.891.892l5.441.018V57.286a.894.894,0,0,0,.891.892h0l2.758,0a.893.893,0,0,0,.891-.892L325.9,40.5h5.422a.894.894,0,0,0,.892-.892V37.286a.894.894,0,0,0-.892-.892" transform="translate(-220.57 -25.483)" fill="#fdfdfd"/>
    <path id="Tracé_7290" data-name="Tracé 7290" d="M271.763,43.382c0-4.18-2.922-6.989-7.272-6.989h-8.732a.892.892,0,0,0-.891.892v20a.893.893,0,0,0,.892.892h2.757a.9.9,0,0,0,.892-.892l.018-6.916,2.939.009,4.375,7.361a.9.9,0,0,0,.767.436h3.155a.892.892,0,0,0,.756-1.365l-4.326-6.995a6.308,6.308,0,0,0,4.67-6.436M259.41,40.557v-.044a.019.019,0,0,1,.019-.019h4.56a2.9,2.9,0,1,1,0,5.776l-4.58-.019Z" transform="translate(-178.46 -25.483)" fill="#fdfdfd"/>
    <path id="Tracé_7291" data-name="Tracé 7291" d="M30.107,64.9,3.942,49.791a2.491,2.491,0,1,0-2.491,4.314l22.92,13.234-3.508,2.03L3.74,59.483A2.491,2.491,0,0,0,1.249,63.8l18.2,10.511a2.816,2.816,0,0,0,1.408.377h0a2.815,2.815,0,0,0,1.409-.377l7.835-4.532a2.815,2.815,0,0,0,1.031-1.032h0A2.817,2.817,0,0,0,30.107,64.9" transform="translate(-0.002 -34.63)" fill="#fdfdfd"/>
    <path id="Tracé_7292" data-name="Tracé 7292" d="M30.269,10.89,12.065.378a2.821,2.821,0,0,0-2.823,0L1.407,4.911a2.817,2.817,0,0,0,0,4.879L27.575,24.9a2.476,2.476,0,0,0,1.243.335h0a2.492,2.492,0,0,0,1.247-4.649L7.145,7.348l3.51-2.03L27.778,15.2a2.491,2.491,0,1,0,2.491-4.314" transform="translate(0 0)" fill="#fdfdfd"/>
  </g>
</svg>
