<svg id="verifier" xmlns="http://www.w3.org/2000/svg" width="20" height="20" viewBox="0 0 20 20">
  <path id="verifier-2" data-name="verifier" d="M20,10.5a9.96,9.96,0,0,1-1.694,5.551.781.781,0,1,1-1.3-.868A8.416,8.416,0,0,0,18.172,8.39.781.781,0,0,1,19.685,8,10.036,10.036,0,0,1,20,10.5Zm-5.635,7.222A8.438,8.438,0,1,1,14.79,3.553a.781.781,0,0,0,.888-1.286,10,10,0,0,0-12.749,15.3,10,10,0,0,0,12.245,1.488.781.781,0,1,0-.81-1.336Zm-4.289-4.957a.445.445,0,0,1-.329-.125L5.655,8.761A.781.781,0,1,0,4.58,9.895l4.091,3.879a2,2,0,0,0,1.384.554l.083,0a2,2,0,0,0,1.419-.669l.027-.032L19.828,3.372a.781.781,0,0,0-1.218-.979L10.382,12.627A.447.447,0,0,1,10.075,12.765Zm0,0" transform="translate(0 -0.5)" fill="#2f45d0"/>
</svg>
